<mxfile host="app.diagrams.net" modified="2024-03-11T15:33:12.574Z" agent="Mozilla/5.0 (Windows NT 10.0; Win64; x64) AppleWebKit/537.36 (KHTML, like Gecko) Chrome/122.0.0.0 Safari/537.36 Edg/122.0.0.0" etag="SqLGK0xWn9kzA4axR5ub" version="24.0.4" type="google">
  <diagram name="Page-1" id="J6b3VlU008-JlQh7W8VV">
    <mxGraphModel grid="1" page="1" gridSize="10" guides="1" tooltips="1" connect="1" arrows="1" fold="1" pageScale="1" pageWidth="827" pageHeight="1169" math="0" shadow="0">
      <root>
        <mxCell id="0" />
        <mxCell id="1" parent="0" />
        <mxCell id="XeVnR2KG0NFQHIzksRVM-3" value="" style="edgeStyle=orthogonalEdgeStyle;rounded=0;orthogonalLoop=1;jettySize=auto;html=1;" edge="1" parent="1" source="XeVnR2KG0NFQHIzksRVM-1" target="XeVnR2KG0NFQHIzksRVM-2">
          <mxGeometry relative="1" as="geometry" />
        </mxCell>
        <mxCell id="XeVnR2KG0NFQHIzksRVM-1" value="Start" style="ellipse;whiteSpace=wrap;html=1;" vertex="1" parent="1">
          <mxGeometry x="350" width="120" height="80" as="geometry" />
        </mxCell>
        <mxCell id="XeVnR2KG0NFQHIzksRVM-5" value="" style="edgeStyle=orthogonalEdgeStyle;rounded=0;orthogonalLoop=1;jettySize=auto;html=1;" edge="1" parent="1" source="XeVnR2KG0NFQHIzksRVM-2" target="XeVnR2KG0NFQHIzksRVM-4">
          <mxGeometry relative="1" as="geometry" />
        </mxCell>
        <mxCell id="XeVnR2KG0NFQHIzksRVM-2" value="Input R" style="shape=parallelogram;perimeter=parallelogramPerimeter;whiteSpace=wrap;html=1;fixedSize=1;" vertex="1" parent="1">
          <mxGeometry x="350" y="130" width="120" height="60" as="geometry" />
        </mxCell>
        <mxCell id="XeVnR2KG0NFQHIzksRVM-7" value="" style="edgeStyle=orthogonalEdgeStyle;rounded=0;orthogonalLoop=1;jettySize=auto;html=1;" edge="1" parent="1" source="XeVnR2KG0NFQHIzksRVM-4" target="XeVnR2KG0NFQHIzksRVM-6">
          <mxGeometry relative="1" as="geometry" />
        </mxCell>
        <mxCell id="XeVnR2KG0NFQHIzksRVM-4" value="d&amp;lt;--2*R&lt;div&gt;p&amp;lt;--2*3.14*R&lt;/div&gt;&lt;div&gt;s&amp;lt;--R*R&lt;/div&gt;" style="whiteSpace=wrap;html=1;" vertex="1" parent="1">
          <mxGeometry x="340" y="270" width="140" height="78" as="geometry" />
        </mxCell>
        <mxCell id="XeVnR2KG0NFQHIzksRVM-9" value="" style="edgeStyle=orthogonalEdgeStyle;rounded=0;orthogonalLoop=1;jettySize=auto;html=1;" edge="1" parent="1" source="XeVnR2KG0NFQHIzksRVM-6">
          <mxGeometry relative="1" as="geometry">
            <mxPoint x="410" y="537" as="targetPoint" />
          </mxGeometry>
        </mxCell>
        <mxCell id="XeVnR2KG0NFQHIzksRVM-6" value="Display d,p,s" style="shape=parallelogram;perimeter=parallelogramPerimeter;whiteSpace=wrap;html=1;fixedSize=1;" vertex="1" parent="1">
          <mxGeometry x="350" y="407" width="120" height="60" as="geometry" />
        </mxCell>
        <mxCell id="XeVnR2KG0NFQHIzksRVM-10" value="End" style="ellipse;whiteSpace=wrap;html=1;" vertex="1" parent="1">
          <mxGeometry x="350" y="540" width="120" height="80" as="geometry" />
        </mxCell>
        <mxCell id="XeVnR2KG0NFQHIzksRVM-11" value="&lt;font style=&quot;font-size: 14px;&quot;&gt;&lt;b&gt;Prototype : duongtron(R) ;&amp;nbsp;&lt;/b&gt;&lt;/font&gt;" style="text;html=1;align=center;verticalAlign=middle;whiteSpace=wrap;rounded=0;" vertex="1" parent="1">
          <mxGeometry width="200" height="70" as="geometry" />
        </mxCell>
      </root>
    </mxGraphModel>
  </diagram>
</mxfile>
